<?xml version="1.0" encoding="UTF-8" standalone="no"?>
<!-- Created with Inkscape (http://www.inkscape.org/) -->

<svg
   width="191.72502mm"
   height="58.195103mm"
   viewBox="0 0 191.72502 58.195103"
   version="1.1"
   id="svg1"
   inkscape:version="1.3.2 (091e20e, 2023-11-25, custom)"
   sodipodi:docname="logo.svg"
   xmlns:inkscape="http://www.inkscape.org/namespaces/inkscape"
   xmlns:sodipodi="http://sodipodi.sourceforge.net/DTD/sodipodi-0.dtd"
   xmlns="http://www.w3.org/2000/svg"
   xmlns:svg="http://www.w3.org/2000/svg">
  <sodipodi:namedview
     id="namedview1"
     pagecolor="#ffffff"
     bordercolor="#111111"
     borderopacity="1"
     inkscape:showpageshadow="0"
     inkscape:pageopacity="0"
     inkscape:pagecheckerboard="1"
     inkscape:deskcolor="#d1d1d1"
     inkscape:document-units="mm"
     inkscape:zoom="0.702883"
     inkscape:cx="295.21272"
     inkscape:cy="286.67645"
     inkscape:window-width="1920"
     inkscape:window-height="1009"
     inkscape:window-x="-8"
     inkscape:window-y="-8"
     inkscape:window-maximized="1"
     inkscape:current-layer="layer1" />
  <defs
     id="defs1" />
  <g
     inkscape:label="Layer 1"
     inkscape:groupmode="layer"
     id="layer1"
     transform="translate(-26.722918,-72.495828)">
    <g
       id="g56"
       transform="matrix(0.26458333,0,0,0.26458333,-106.91283,-356.87)"
       style="fill:#ffffff">
	<g
   id="g46"
   style="fill:#ffffff">
		<g
   id="g45"
   style="fill:#ffffff">
			<path
   class="st1"
   d="m 1229.71,1657.67 c 0,4.17 -3.52,7.45 -8.11,7.45 -4.54,0 -8.16,-3.28 -8.16,-7.45 0,-4.08 3.62,-7.36 8.16,-7.36 4.59,0 8.11,3.27 8.11,7.36 z m -14.24,0 c 0,3.28 2.61,5.88 6.18,5.88 3.48,0 6.03,-2.6 6.03,-5.83 0,-3.28 -2.56,-5.92 -6.08,-5.92 -3.52,-0.01 -6.13,2.64 -6.13,5.87 z m 4.88,3.85 h -1.83 v -7.36 c 0.72,-0.13 1.74,-0.22 3.04,-0.22 1.5,0 2.17,0.22 2.75,0.54 0.43,0.31 0.77,0.9 0.77,1.61 0,0.81 -0.68,1.43 -1.64,1.7 v 0.09 c 0.77,0.27 1.21,0.81 1.45,1.8 0.24,1.12 0.39,1.57 0.58,1.84 h -1.98 c -0.24,-0.27 -0.39,-0.94 -0.63,-1.79 -0.15,-0.81 -0.63,-1.17 -1.64,-1.17 h -0.87 z m 0.05,-4.17 h 0.87 c 1.01,0 1.83,-0.31 1.83,-1.08 0,-0.67 -0.53,-1.12 -1.69,-1.12 -0.48,0 -0.82,0.05 -1.01,0.09 z"
   id="path45"
   style="fill:#ffffff" />

		</g>

	</g>

	<g
   id="g55"
   style="fill:#ffffff">
		<g
   id="g54"
   style="fill:#ffffff">
			<path
   class="st1"
   d="M 578.53,1668.78 V 1808 c 0,11.58 -3.24,20.26 -9.72,26.06 -6.48,5.79 -15.39,8.69 -26.73,8.69 -12.25,0 -21.47,-2.98 -27.68,-8.94 -6.21,-5.96 -9.32,-14.56 -9.32,-25.8 v -2.55 h 21.33 c 0.18,6.81 1.39,12.01 3.65,15.58 2.25,3.58 6.16,5.36 11.74,5.36 10.26,0 15.39,-6.73 15.39,-20.18 v -24.27 c -1.98,3.92 -4.95,6.99 -8.91,9.2 -3.96,2.21 -8.37,3.32 -13.23,3.32 -9.9,0 -17.38,-2.72 -22.41,-8.18 -5.04,-5.45 -7.56,-12.94 -7.56,-22.48 v -67.69 c 0,-9.53 2.52,-16.99 7.56,-22.35 5.04,-5.36 12.51,-8.05 22.41,-8.05 5.58,0 10.57,1.45 14.99,4.34 4.41,2.9 7.43,6.81 9.05,11.75 l 2.16,-13.03 z m -26.19,102.82 c 3.24,-3.15 4.86,-7.79 4.86,-13.92 v -55.43 c 0,-6.3 -1.44,-10.98 -4.32,-14.05 -2.88,-3.07 -6.57,-4.6 -11.07,-4.6 -4.86,0 -8.64,1.53 -11.34,4.6 -2.7,3.07 -4.05,7.75 -4.05,14.05 v 55.43 c 0,6.13 1.35,10.78 4.05,13.92 2.7,3.15 6.48,4.72 11.34,4.72 3.78,0 7.29,-1.57 10.53,-4.72 z"
   id="path46"
   style="fill:#ffffff" />

			<path
   class="st1"
   d="m 595,1622.8 h 21.6 v 179.84 H 595 Z"
   id="path47"
   style="fill:#ffffff" />

			<path
   class="st1"
   d="m 698.14,1672.1 c 7.02,4.26 10.62,11.58 10.8,21.97 v 108.57 h -20.52 v -8.69 c -2.7,3.58 -6.35,6.35 -10.94,8.3 -4.59,1.96 -9.31,2.94 -14.17,2.94 -10.44,0 -18.18,-2.64 -23.22,-7.92 -5.04,-5.28 -7.56,-14.05 -7.56,-26.31 v -13.79 c 0,-5.96 1.44,-10.94 4.32,-14.95 2.88,-4 6.39,-7.11 10.53,-9.32 4.14,-2.21 9.45,-4.51 15.93,-6.9 7.74,-3.06 13.41,-5.87 17.01,-8.43 3.6,-2.55 5.4,-6.13 5.4,-10.73 v -10.99 c 0,-5.45 -1.17,-9.15 -3.51,-11.11 -2.34,-1.96 -5.58,-2.94 -9.72,-2.94 -9,0 -13.5,4.69 -13.5,14.05 v 17.37 h -21.87 v -17.62 c 0,-10.39 3.37,-17.97 10.13,-22.73 6.75,-4.77 14.8,-7.15 24.17,-7.15 10.79,0 19.7,2.13 26.72,6.38 z m -11.61,60.03 c -3.42,2.05 -7.56,4.09 -12.42,6.13 -6.84,3.07 -11.88,5.88 -15.12,8.43 -3.24,2.55 -4.86,6.05 -4.86,10.47 v 15.07 c 0,10.39 5.4,15.58 16.2,15.58 4.68,0 8.55,-1.28 11.61,-3.83 3.06,-2.55 4.59,-6.81 4.59,-12.77 z"
   id="path48"
   style="fill:#ffffff" />

			<path
   class="st1"
   d="m 733.52,1798.04 c -6.48,-4.76 -9.72,-12.34 -9.72,-22.73 v -18.39 h 20.25 v 14.31 c 0,5.96 1.3,10.22 3.92,12.77 2.61,2.55 6.08,3.83 10.4,3.83 10.08,0 15.12,-5.19 15.12,-15.58 v -12 c 0,-4.6 -1.67,-8.18 -5,-10.73 -3.33,-2.55 -8.6,-5.28 -15.8,-8.17 -6.3,-2.55 -11.34,-4.98 -15.12,-7.28 -3.78,-2.3 -7.07,-5.49 -9.86,-9.58 -2.79,-4.09 -4.19,-9.28 -4.19,-15.59 v -14.81 c 0,-10.39 3.33,-17.79 9.99,-22.23 6.66,-4.43 15.03,-6.64 25.11,-6.64 8.82,0 16.43,2.21 22.82,6.64 6.39,4.43 9.59,11.84 9.59,22.23 v 19.16 h -19.44 v -17.62 c 0,-5.28 -1.31,-8.9 -3.92,-10.86 -2.61,-1.96 -5.63,-2.94 -9.05,-2.94 -9.9,0 -14.85,4.6 -14.85,13.8 v 11.24 c 0,4.6 1.71,8.14 5.13,10.6 3.42,2.47 8.73,5.24 15.93,8.3 5.94,2.38 10.89,4.69 14.85,6.9 3.96,2.21 7.29,5.33 9.99,9.32 2.7,4 4.05,8.99 4.05,14.95 v 15.58 c 0,11.75 -3.24,20.14 -9.72,25.16 -6.48,5.02 -15.03,7.54 -25.65,7.54 -10.07,-0.03 -18.35,-2.42 -24.83,-7.18 z"
   id="path49"
   style="fill:#ffffff" />

			<path
   class="st1"
   d="m 816.95,1798.04 c -6.48,-4.76 -9.72,-12.34 -9.72,-22.73 v -18.39 h 20.25 v 14.31 c 0,5.96 1.3,10.22 3.92,12.77 2.61,2.55 6.08,3.83 10.4,3.83 10.08,0 15.12,-5.19 15.12,-15.58 v -12 c 0,-4.6 -1.67,-8.18 -4.99,-10.73 -3.33,-2.55 -8.6,-5.28 -15.8,-8.17 -6.3,-2.55 -11.34,-4.98 -15.12,-7.28 -3.78,-2.3 -7.07,-5.49 -9.86,-9.58 -2.79,-4.09 -4.19,-9.28 -4.19,-15.59 v -14.81 c 0,-10.39 3.33,-17.79 9.99,-22.23 6.66,-4.43 15.03,-6.64 25.11,-6.64 8.82,0 16.43,2.21 22.82,6.64 6.39,4.43 9.58,11.84 9.58,22.23 v 19.16 h -19.44 v -17.62 c 0,-5.28 -1.3,-8.9 -3.91,-10.86 -2.61,-1.96 -5.63,-2.94 -9.05,-2.94 -9.9,0 -14.85,4.6 -14.85,13.8 v 11.24 c 0,4.6 1.71,8.14 5.13,10.6 3.42,2.47 8.73,5.24 15.93,8.3 5.94,2.38 10.89,4.69 14.85,6.9 3.96,2.21 7.29,5.33 9.99,9.32 2.7,4 4.05,8.99 4.05,14.95 v 15.58 c 0,11.75 -3.24,20.14 -9.72,25.16 -6.48,5.02 -15.03,7.54 -25.65,7.54 -10.08,-0.03 -18.36,-2.42 -24.84,-7.18 z"
   id="path50"
   style="fill:#ffffff" />

			<path
   class="st1"
   d="m 960.6,1672.87 c 4.5,4.77 6.75,11.92 6.75,21.46 v 108.31 h -21.33 v -102.18 c 0,-6.13 -1.13,-10.51 -3.37,-13.16 -2.25,-2.64 -5.81,-3.96 -10.67,-3.96 -4.86,0 -9.14,1.58 -12.83,4.73 -3.69,3.15 -5.54,7.88 -5.54,14.18 v 100.39 h -21.6 v -133.86 h 14.58 l 1.35,15.33 c 1.8,-5.62 5.49,-10.09 11.07,-13.41 5.58,-3.32 12.06,-4.98 19.44,-4.98 10.27,0 17.65,2.38 22.15,7.15 z"
   id="path51"
   style="fill:#ffffff" />

			<path
   class="st1"
   d="m 992.05,1795.74 c -6.75,-6.3 -10.12,-15.24 -10.12,-26.82 v -67.19 c 0,-11.41 3.37,-20.26 10.12,-26.57 6.75,-6.3 15.62,-9.45 26.6,-9.45 h 1.35 c 11.16,0 20.16,3.15 27,9.45 6.84,6.3 10.26,15.16 10.26,26.57 v 67.19 c 0,11.58 -3.42,20.52 -10.26,26.82 -6.84,6.3 -15.84,9.45 -27,9.45 h -1.35 c -10.98,0 -19.85,-3.15 -26.6,-9.45 z m 27.68,-8.43 c 4.32,0 8.06,-1.74 11.21,-5.24 3.15,-3.49 4.73,-8.47 4.73,-14.94 v -63.35 c 0,-6.47 -1.58,-11.5 -4.73,-15.07 -3.15,-3.57 -6.98,-5.36 -11.48,-5.36 h -0.27 c -4.32,0 -8.06,1.79 -11.2,5.36 -3.15,3.58 -4.73,8.6 -4.73,15.07 v 63.35 c 0,6.47 1.57,11.45 4.73,14.94 3.15,3.49 6.88,5.24 11.2,5.24 z"
   id="path52"
   style="fill:#ffffff" />

			<path
   class="st1"
   d="m 1105.6,1686.92 v 82 c 0,5.28 0.63,8.9 1.89,10.86 1.26,1.96 3.69,2.94 7.29,2.94 3.24,0 8.1,-0.77 14.58,-2.3 v 19.16 l -14.04,2.3 c -3.96,0.85 -7.2,1.28 -9.72,1.28 -14.22,0 -21.33,-8.43 -21.33,-25.29 v -90.94 h -15.93 v -18.14 h 15.93 v -45.98 h 21.33 v 45.98 h 23.76 v 18.14 z"
   id="path53"
   style="fill:#ffffff" />

			<path
   class="st1"
   d="m 1160.95,1744.4 v 23.76 c 0,6.3 1.39,10.98 4.18,14.05 2.79,3.07 6.25,4.6 10.4,4.6 h 0.27 c 4.14,0 7.47,-1.49 9.99,-4.47 2.52,-2.98 3.78,-7.7 3.78,-14.18 v -3.32 h 21.33 v 5.37 c 0,11.41 -3.2,20.09 -9.58,26.05 -6.39,5.97 -14.72,8.94 -24.98,8.94 h -1.35 c -10.44,0 -18.95,-3.02 -25.52,-9.07 -6.57,-6.05 -9.85,-14.69 -9.85,-25.93 v -70.25 c 0,-11.24 3.24,-19.76 9.72,-25.55 6.48,-5.79 14.94,-8.68 25.38,-8.68 h 1.35 c 10.44,0 18.86,2.9 25.25,8.68 6.39,5.79 9.58,14.31 9.58,25.55 v 44.45 z m 4.05,-56.46 c -2.7,3.07 -4.05,7.75 -4.05,14.05 v 27.33 h 28.62 v -27.33 c 0,-6.3 -1.4,-10.98 -4.18,-14.05 -2.79,-3.07 -6.08,-4.6 -9.86,-4.6 h -0.27 c -4.14,0 -7.56,1.53 -10.26,4.6 z"
   id="path54"
   style="fill:#ffffff" />

		</g>

	</g>

</g>
  </g>
</svg>
