<?xml version="1.0" encoding="UTF-8" standalone="no"?>
<!-- Created with Inkscape (http://www.inkscape.org/) -->

<svg
   width="5.291666mm"
   height="5.2916656mm"
   viewBox="0 0 5.291666 5.2916656"
   version="1.1"
   id="svg1"
   xml:space="preserve"
   inkscape:version="1.3.2 (091e20e, 2023-11-25, custom)"
   sodipodi:docname="xbutton.svg"
   xmlns:inkscape="http://www.inkscape.org/namespaces/inkscape"
   xmlns:sodipodi="http://sodipodi.sourceforge.net/DTD/sodipodi-0.dtd"
   xmlns="http://www.w3.org/2000/svg"
   xmlns:svg="http://www.w3.org/2000/svg"><sodipodi:namedview
     id="namedview1"
     pagecolor="#ffffff"
     bordercolor="#111111"
     borderopacity="1"
     inkscape:showpageshadow="0"
     inkscape:pageopacity="0"
     inkscape:pagecheckerboard="1"
     inkscape:deskcolor="#d1d1d1"
     inkscape:document-units="mm"
     inkscape:zoom="5.623064"
     inkscape:cx="12.181971"
     inkscape:cy="11.470615"
     inkscape:window-width="1920"
     inkscape:window-height="1009"
     inkscape:window-x="-8"
     inkscape:window-y="-8"
     inkscape:window-maximized="1"
     inkscape:current-layer="layer1" /><defs
     id="defs1" /><g
     inkscape:label="Layer 1"
     inkscape:groupmode="layer"
     id="layer1"
     transform="translate(-34.238703,-61.075668)"><path
       style="fill:#f9f9f9;stroke-width:0.0408814"
       d="m 36.652668,66.358893 c -0.146635,-0.01308 -0.396833,-0.06248 -0.539369,-0.106499 -0.405553,-0.125247 -0.754403,-0.331964 -1.059611,-0.62789 -0.159856,-0.154995 -0.256749,-0.270198 -0.369983,-0.439902 -0.53209,-0.797441 -0.591036,-1.810321 -0.15515,-2.665953 0.364822,-0.716133 1.049994,-1.237675 1.832189,-1.394631 0.197928,-0.03972 0.290097,-0.0483 0.518976,-0.04835 0.447201,-8.9e-5 0.817815,0.08758 1.203834,0.284763 0.616285,0.314807 1.094202,0.870313 1.313127,1.52631 0.252432,0.756402 0.143274,1.603854 -0.292685,2.272259 -0.371671,0.569841 -0.942391,0.973444 -1.605379,1.135299 -0.255759,0.06244 -0.586754,0.08771 -0.845949,0.06459 z m 0.547717,-0.232417 c 0.791681,-0.10232 1.488535,-0.599177 1.851572,-1.320171 0.111151,-0.220747 0.181237,-0.435078 0.229673,-0.702362 0.03075,-0.169669 0.02831,-0.612712 -0.0044,-0.793366 -0.144528,-0.799189 -0.652551,-1.459955 -1.382769,-1.798517 -0.210859,-0.09776 -0.499218,-0.17832 -0.733673,-0.204962 -0.162829,-0.0185 -0.457557,-0.01381 -0.618177,0.0098 -0.527212,0.07763 -0.997351,0.313291 -1.371901,0.687672 -0.373554,0.373386 -0.608736,0.844044 -0.686727,1.374318 -0.02348,0.159613 -0.02823,0.470245 -0.0095,0.622498 0.09502,0.77349 0.549,1.453267 1.226709,1.836838 0.254225,0.143886 0.566576,0.248524 0.859555,0.287953 0.158732,0.02136 0.475345,0.02149 0.639619,2e-4 z M 35.851717,64.80034 c -0.04781,-0.02322 -0.07106,-0.09424 -0.04666,-0.142527 0.0066,-0.013 0.216948,-0.229345 0.46751,-0.480767 l 0.455568,-0.457131 -0.461425,-0.462664 c -0.306961,-0.307784 -0.463855,-0.472625 -0.468683,-0.492421 -0.01992,-0.0817 0.05132,-0.152992 0.132941,-0.133053 0.01978,0.0048 0.184481,0.161858 0.492006,0.469078 l 0.462274,0.461815 0.456747,-0.455953 c 0.25121,-0.250773 0.467373,-0.46133 0.480362,-0.467904 0.04277,-0.02165 0.07924,-0.01397 0.118021,0.02484 0.03878,0.03881 0.04645,0.07531 0.02482,0.118121 -0.0066,0.013 -0.216976,0.229372 -0.467572,0.480828 l -0.455629,0.457192 0.455629,0.457192 c 0.250596,0.251456 0.461004,0.467829 0.467572,0.480828 0.02163,0.04281 0.01396,0.07931 -0.02482,0.11812 -0.03878,0.03881 -0.07525,0.04649 -0.118021,0.02484 -0.01299,-0.0066 -0.229179,-0.217158 -0.480423,-0.467965 l -0.456807,-0.456013 -0.456807,0.456013 c -0.251244,0.250807 -0.467435,0.461391 -0.480424,0.467965 -0.02859,0.01447 -0.06584,0.0143 -0.09618,-4.4e-4 z"
       id="path1" /></g></svg>
